# xmcd
#
# Track frame offsets:
#	150
#	9720
#	20115
#	32813
#	45001
#	56559
#	65882
#	78437
#	91157
#	104185
#	116373
#	129243
#	142608
#	154578
#	166293
#	180716
#	193609
#	205752
#	218922
#	229370
#	240515
#	255020
#	268213
#	281901
#
# Disc length: 3910 seconds
#
# Revision: 1
# Processed by: cddbd v1.5.2PL0 Copyright (c) Steve Scherf et al.
# Submitted via: audiograbber 1.83.01
#
DISCID=4c0f4418
DTITLE=Mel Tillis - 24 Great Hits
DYEAR=1977
DGENRE=Country
TTITLE0=I Ain't Never
TTITLE1=Neon Rose
TTITLE2=Brand New Mister Me
TTITLE3=Commercial Affection
TTITLE4=Heaven Everyday
TTITLE5=Take My Hand
TTITLE6=Midnight, Me And The Blues
TTITLE7=Don't Let Go
TTITLE8=Best Way I Know How
TTITLE9=Mental Revenge
TTITLE10=Woman In The Back Of My Mind
TTITLE11=Ruby, Don't Take Your Love To Town
TTITLE12=Sawmill
TTITLE13=The Arms Of A Fool
TTITLE14=Storms Never Last
TTITLE15=Memory Maker
TTITLE16=Living And Learning
TTITLE17=Heart Over Mind
TTITLE18=Would You Want The World To End
TTITLE19=Stomp Them Grapes
TTITLE20=You Are The One
TTITLE21=Lookin' For Tommorrow (And Findin' Yesterday)
TTITLE22=Borrowed Angel
TTITLE23=Untouched
EXTD=
EXTT0=
EXTT1=
EXTT2=
EXTT3=
EXTT4=
EXTT5=
EXTT6=
EXTT7=
EXTT8=
EXTT9=
EXTT10=
EXTT11=
EXTT12=
EXTT13=
EXTT14=
EXTT15=
EXTT16=
EXTT17=
EXTT18=
EXTT19=
EXTT20=
EXTT21=
EXTT22=
EXTT23=
PLAYORDER=
